<?xml version="1.0" standalone="no"?>
<!DOCTYPE svg PUBLIC "-//W3C//DTD SVG 20010904//EN"
 "http://www.w3.org/TR/2001/REC-SVG-20010904/DTD/svg10.dtd">
<svg version="1.0" xmlns="http://www.w3.org/2000/svg"
 width="1174.000000pt" height="1174.000000pt" viewBox="0 0 1174.000000 1174.000000"
 preserveAspectRatio="xMidYMid meet">
<metadata>
Created by potrace 1.14, written by Peter Selinger 2001-2017
</metadata>
<g transform="translate(0.000000,1174.000000) scale(0.100000,-0.100000)"
fill="#000000" stroke="none">
<path d="M953 7872 c-31 -3 -51 -26 -32 -38 7 -4 6 -10 -1 -19 -8 -9 -8 -15 0
-20 6 -3 7 -13 2 -23 -9 -21 -9 -43 1 -59 5 -7 5 -19 1 -25 -11 -18 -12 -48
-2 -54 5 -3 4 -12 -2 -19 -8 -10 -8 -15 0 -20 8 -5 8 -10 0 -20 -8 -10 -8 -15
0 -20 8 -5 8 -10 0 -20 -8 -10 -8 -15 0 -20 8 -5 8 -10 0 -20 -8 -9 -8 -15 0
-20 7 -4 7 -13 -1 -27 -9 -16 -8 -19 3 -12 11 6 11 5 -1 -9 -7 -9 -9 -17 -4
-17 13 0 11 -43 -2 -52 -6 -5 -5 -8 3 -8 8 0 10 -5 6 -12 -7 -11 -10 -53 -4
-60 8 -12 6 -38 -3 -38 -7 0 -5 -5 3 -10 13 -9 13 -10 0 -10 -9 0 -11 -3 -5
-8 12 -8 13 -27 3 -38 -4 -4 -3 -13 3 -21 9 -10 8 -13 -2 -13 -9 0 -10 -3 -4
-8 12 -8 15 -62 3 -62 -4 0 -8 -5 -8 -11 0 -5 4 -8 8 -5 10 6 9 -24 -1 -41 -4
-6 -2 -15 4 -19 8 -4 7 -9 -2 -15 -8 -5 -9 -9 -4 -9 6 0 11 -9 12 -20 1 -13
-2 -18 -9 -14 -7 4 -8 2 -4 -5 12 -19 14 -61 3 -61 -5 0 -3 -8 4 -17 12 -15
12 -16 -1 -8 -13 8 -13 7 -1 -8 8 -11 10 -22 5 -29 -11 -15 -11 -38 -1 -55 4
-6 3 -14 -3 -18 -6 -4 -7 -12 -3 -18 12 -20 12 -37 0 -37 -8 0 -8 -3 -2 -8 13
-9 18 -32 7 -32 -10 0 -9 -30 2 -48 4 -7 4 -18 -1 -25 -10 -14 -10 -38 0 -54
4 -6 3 -15 -3 -18 -8 -5 -8 -11 0 -20 8 -9 8 -15 0 -20 -6 -3 -7 -12 -3 -18
11 -18 11 -47 0 -47 -5 0 -3 -8 4 -17 12 -15 12 -16 -1 -8 -13 8 -13 7 -1 -9
10 -12 11 -20 3 -28 -7 -7 -7 -19 -2 -34 6 -15 6 -24 0 -24 -6 0 -10 -5 -10
-11 0 -5 4 -8 8 -5 10 6 9 -24 -1 -41 -4 -6 -2 -15 4 -19 8 -4 7 -9 -2 -15
-10 -6 -10 -9 -2 -9 11 0 10 -30 -2 -49 -3 -5 -1 -12 4 -15 10 -7 9 -25 -2
-43 -5 -8 -4 -13 2 -13 13 0 10 -22 -4 -32 -6 -5 -6 -8 2 -8 9 0 11 -26 3 -37
-6 -8 -3 -50 4 -62 5 -7 4 -17 -2 -23 -8 -8 -8 -17 -1 -30 7 -13 6 -18 -3 -18
-10 0 -10 -2 1 -9 9 -6 10 -10 2 -16 -9 -5 -9 -10 0 -21 7 -9 8 -19 3 -26 -11
-15 -11 -38 -1 -55 4 -6 3 -15 -3 -18 -8 -5 -8 -11 0 -20 8 -10 8 -15 0 -20
-8 -5 -8 -10 0 -20 8 -10 8 -15 0 -20 -8 -5 -8 -10 0 -20 8 -9 8 -15 0 -20 -6
-3 -7 -12 -3 -18 11 -18 11 -47 0 -47 -5 0 -3 -8 4 -17 12 -15 12 -16 -1 -8
-13 8 -13 6 -2 -8 8 -9 10 -22 6 -29 -11 -18 -12 -48 -2 -54 5 -3 4 -12 -2
-19 -8 -9 -8 -15 0 -20 5 -3 10 -11 10 -16 0 -6 -5 -7 -12 -3 -7 4 -8 3 -4 -5
12 -19 14 -61 3 -61 -5 0 -3 -8 4 -17 12 -15 12 -16 -1 -8 -13 8 -13 7 -1 -8
11 -14 11 -20 0 -34 -12 -15 -12 -16 1 -8 13 8 13 7 1 -8 -10 -13 -10 -17 -1
-17 10 0 10 -3 0 -14 -10 -13 -7 -14 17 -10 15 3 33 11 38 18 6 7 24 19 40 28
17 8 54 27 83 42 28 15 52 31 52 37 0 5 9 9 19 9 11 0 23 5 27 11 3 6 15 9 25
6 11 -3 17 -2 15 2 -7 10 29 39 57 46 13 4 36 17 52 31 15 13 34 24 40 24 7 0
18 7 25 15 7 8 21 15 30 15 10 0 20 5 22 11 2 6 15 12 30 12 14 1 24 6 21 11
-6 9 15 26 35 26 9 0 12 -121 12 -574 0 -538 4 -629 26 -572 3 9 17 16 29 16
13 0 37 12 54 26 17 14 35 23 41 19 5 -3 10 -1 10 4 0 6 9 11 19 11 11 0 26 7
35 15 8 8 22 15 30 15 9 0 16 4 16 10 0 5 7 7 15 4 9 -4 15 0 15 10 0 9 8 16
18 16 20 0 92 36 107 53 6 7 16 13 24 15 19 4 70 27 101 46 27 16 144 70 173
79 16 6 17 43 17 597 0 555 -1 590 -17 591 -31 2 -47 -2 -64 -17 -9 -8 -19
-11 -22 -7 -4 3 -7 1 -7 -6 0 -7 -4 -9 -10 -6 -5 3 -10 1 -10 -5 0 -6 -3 -9
-8 -6 -4 2 -26 -9 -50 -25 -23 -16 -47 -29 -53 -29 -5 0 -21 -7 -34 -16 -14
-9 -25 -12 -25 -8 0 5 -5 2 -10 -6 -5 -8 -13 -15 -17 -16 -4 0 -21 -6 -36 -12
-16 -7 -33 -12 -38 -12 -5 0 -9 -4 -9 -10 0 -5 -7 -10 -15 -10 -8 0 -15 -4
-15 -10 0 -5 -9 -10 -20 -10 -11 0 -20 -4 -20 -9 0 -5 -16 -12 -35 -15 -20 -4
-33 -11 -30 -16 3 -4 -8 -11 -24 -15 -17 -3 -40 -14 -53 -24 -13 -10 -35 -21
-50 -25 -16 -3 -28 -11 -28 -16 0 -6 -7 -10 -15 -10 -13 0 -14 109 -12 883 l2
882 1770 3 c974 2 1804 4 1845 5 79 2 104 -11 54 -28 -16 -5 -31 -12 -34 -15
-6 -7 -72 -35 -83 -35 -4 0 -12 -6 -16 -14 -5 -7 -13 -11 -19 -7 -5 3 -15 -1
-22 -9 -7 -8 -25 -15 -41 -15 -16 0 -29 -4 -29 -10 0 -5 -9 -10 -19 -10 -10 0
-22 -7 -25 -16 -4 -9 -13 -14 -21 -10 -8 3 -15 2 -15 -3 0 -5 -16 -12 -35 -15
-19 -4 -35 -10 -35 -15 0 -4 -19 -14 -42 -21 -24 -8 -50 -20 -59 -27 -8 -7
-21 -13 -28 -13 -7 0 -9 -4 -6 -10 3 -5 -3 -10 -15 -10 -11 0 -28 -4 -38 -10
-30 -16 -86 -38 -115 -44 -15 -4 -27 -11 -27 -16 0 -6 -9 -10 -20 -10 -11 0
-20 -4 -20 -10 0 -5 -7 -10 -16 -10 -20 0 -118 -42 -122 -52 -2 -4 -14 -8 -27
-8 -13 0 -26 -4 -30 -9 -3 -5 -19 -12 -35 -16 -17 -4 -30 -11 -30 -16 0 -5
-11 -9 -25 -9 -14 0 -25 -3 -25 -8 0 -9 -65 -38 -107 -48 -15 -4 -35 -12 -43
-19 -8 -7 -25 -16 -37 -19 -13 -4 -23 -14 -23 -22 0 -11 18 -14 88 -14 1013
-5 4958 3 4962 9 8 13 77 40 84 33 3 -3 6 2 6 11 0 9 12 18 30 22 16 4 44 16
62 29 18 12 54 31 80 41 27 11 48 23 48 28 0 4 7 7 15 7 8 0 24 8 35 18 11 9
22 15 23 13 1 -1 25 9 52 24 134 73 174 92 179 87 3 -3 6 0 6 6 0 7 9 12 21
12 11 0 17 5 14 10 -3 6 1 10 9 10 18 0 116 51 116 60 0 4 23 13 50 20 28 7
50 18 50 24 0 10 69 46 89 46 4 0 16 9 26 20 9 10 20 19 24 18 12 -2 57 20 70
36 7 9 21 16 30 16 19 1 57 27 49 35 -2 3 -1087 5 -2409 5 -2147 1 -2400 2
-2369 16 19 8 37 18 40 22 6 10 90 37 107 35 7 0 11 3 8 7 -6 10 74 50 98 50
9 0 17 4 17 10 0 8 54 27 85 30 6 1 17 7 25 13 29 23 60 37 80 37 11 0 23 7
26 15 4 8 10 13 14 10 5 -3 14 0 22 7 7 7 24 15 38 17 14 1 28 7 31 13 3 5 16
10 27 11 12 1 22 4 22 7 0 10 68 40 89 40 10 0 21 6 24 14 5 12 70 32 89 28 5
-1 8 2 8 8 0 11 60 40 88 43 12 1 24 7 26 14 3 7 15 13 26 13 11 0 20 5 20 10
0 6 7 10 15 10 21 0 85 32 85 42 0 5 4 6 10 3 5 -3 22 1 37 9 l28 15 -30 1
c-80 3 -5564 5 -5592 2z"/>
<path d="M2288 6547 c-2 -73 -2 -250 0 -394 2 -248 4 -263 21 -263 10 0 24 7
31 15 7 8 16 13 20 10 4 -2 32 11 63 29 31 19 71 38 89 42 18 3 40 14 48 24 8
10 29 20 46 24 l32 7 -1 -443 -1 -443 160 0 159 0 2 84 c1 47 4 93 6 103 3 10
2 18 -1 18 -8 0 -6 285 2 305 3 8 2 15 -2 15 -6 0 -7 66 -3 315 0 33 1 67 0
75 0 8 1 39 1 68 l2 53 124 -2 c68 -1 126 0 128 2 7 7 11 137 4 144 -3 4 -37
-10 -74 -29 -37 -20 -71 -36 -76 -36 -5 0 -16 -7 -24 -15 -9 -8 -24 -15 -35
-15 -10 0 -19 -5 -19 -11 0 -6 -7 -9 -15 -5 -8 3 -14 2 -14 -2 4 -23 -3 -34
-19 -30 -10 3 -24 -1 -31 -9 -7 -8 -22 -13 -31 -10 -12 3 -17 0 -14 -8 3 -7
-9 -17 -28 -24 -18 -7 -44 -19 -58 -26 -50 -28 -133 -65 -146 -65 -16 0 -15
38 1 63 12 17 9 66 -4 68 -3 1 -58 2 -121 3 l-115 1 -2 158 -2 157 410 0 409
0 1 -37 c1 -21 0 -48 -1 -61 -1 -13 6 -29 15 -36 20 -14 26 -46 12 -63 -6 -9
-5 -13 4 -13 11 0 11 -2 -1 -10 -8 -5 -10 -10 -5 -10 6 0 11 -9 11 -19 0 -11
-5 -17 -11 -13 -5 3 -4 -2 4 -11 11 -14 11 -17 0 -17 -9 0 -10 -3 -4 -8 12 -8
15 -53 4 -46 -4 2 -6 -6 -3 -18 10 -43 10 -63 -1 -71 -7 -6 -6 -10 1 -13 7 -3
9 -22 7 -47 -2 -23 -4 -49 -4 -57 1 -8 1 -26 0 -40 0 -14 0 -32 0 -40 1 -8 1
-26 0 -40 0 -14 0 -32 0 -40 1 -8 1 -26 0 -40 0 -14 0 -32 0 -40 1 -8 1 -26 0
-40 0 -14 0 -32 0 -40 1 -8 1 -26 0 -40 0 -14 0 -32 0 -40 1 -8 1 -26 0 -40 0
-14 0 -32 0 -40 1 -8 1 -26 0 -40 -1 -29 -1 -36 4 -70 2 -14 1 -29 -2 -35 -8
-15 -8 -45 -1 -45 8 0 5 -44 -4 -59 -4 -5 -2 -12 3 -16 6 -3 7 -15 2 -28 -8
-21 -6 -23 26 -25 20 -2 38 -3 42 -4 3 0 129 0 279 1 l272 1 0 125 0 125 -135
0 -135 0 0 155 0 155 109 0 108 0 -3 60 c-2 44 1 58 9 54 8 -5 8 -2 0 7 -7 7
-13 21 -13 31 0 10 6 18 13 18 9 0 9 2 -1 9 -8 4 -13 14 -12 22 7 48 6 49
-105 49 l-105 0 0 123 0 122 135 -1 135 0 1 25 c1 81 -3 276 -6 279 -2 3 -63
4 -134 4 -120 -1 -131 1 -131 18 0 12 10 20 35 24 19 4 35 10 35 14 0 5 23 16
50 26 28 10 50 21 50 25 0 9 51 31 72 31 10 0 18 7 18 15 0 12 -103 14 -780
14 l-779 0 -3 -132z"/>
<path d="M4200 6541 c-8 -5 -18 -7 -22 -5 -5 3 -11 -2 -14 -10 -3 -9 -14 -16
-24 -16 -9 0 -25 -9 -35 -20 -10 -11 -26 -22 -36 -25 -11 -4 -22 -17 -25 -31
-3 -13 -10 -24 -16 -24 -12 0 -35 -56 -39 -95 -2 -16 -6 -34 -10 -40 -4 -5 -6
-23 -5 -40 1 -16 -2 -38 -6 -47 -5 -10 -3 -18 5 -21 9 -4 8 -8 -3 -16 -8 -6
-10 -11 -5 -11 11 0 11 -62 0 -79 -3 -6 -2 -11 3 -11 5 0 7 -15 5 -32 -6 -39
-6 -42 0 -90 4 -27 2 -36 -6 -31 -7 4 -5 -1 3 -12 17 -21 17 -24 -2 -36 -11
-7 -11 -9 1 -9 11 0 11 -3 1 -15 -7 -8 -9 -15 -4 -15 11 0 10 -212 0 -229 -4
-6 -3 -11 2 -11 5 0 7 -15 5 -32 -3 -18 -4 -37 -4 -43 1 -5 3 -28 5 -50 2 -22
5 -40 6 -40 3 0 4 -5 16 -82 4 -29 17 -54 38 -75 44 -45 83 -77 89 -72 2 2 12
-6 21 -19 14 -17 25 -22 47 -19 16 2 37 1 46 -3 23 -10 215 -13 228 -4 6 3 27
9 47 12 21 3 57 19 82 36 25 17 50 31 56 31 9 0 53 63 56 83 1 4 3 9 4 12 1 3
3 9 4 14 0 5 4 13 9 17 4 4 7 35 7 68 0 34 4 68 9 75 6 9 6 22 0 33 -5 10 -6
18 -2 18 7 0 8 49 3 168 0 9 -40 12 -164 12 l-164 0 0 -127 c0 -190 2 -180
-29 -189 -34 -9 -52 -6 -68 9 -8 9 -11 127 -11 432 1 465 2 470 58 461 17 -2
35 -9 41 -15 6 -6 10 -61 10 -131 l0 -120 164 0 c107 0 162 3 158 10 -3 6 -3
10 2 10 4 0 8 14 9 30 1 17 -3 30 -8 30 -5 0 -4 9 2 19 7 14 6 21 -3 24 -9 4
-8 6 2 6 10 1 11 4 2 15 -8 9 -8 16 -2 20 7 4 7 15 1 31 -5 13 -10 49 -11 79
-1 31 -6 56 -11 56 -4 0 -8 7 -8 15 0 8 -4 15 -10 15 -5 0 -10 6 -10 13 0 27
-26 67 -42 67 -10 0 -18 4 -18 8 0 4 -26 21 -57 37 -56 29 -64 30 -208 33 -84
1 -156 -2 -165 -7z"/>
<path d="M9658 6532 c-16 -2 -28 -9 -28 -18 0 -8 -7 -14 -16 -14 -9 0 -41 -25
-70 -55 -30 -30 -51 -55 -47 -55 4 0 -3 -9 -14 -20 -12 -10 -24 -33 -28 -50
-4 -16 -13 -30 -20 -30 -16 0 -39 -74 -31 -96 3 -8 2 -14 -2 -14 -27 0 -46
-149 -45 -340 1 -200 12 -298 36 -328 6 -8 12 -32 13 -54 2 -23 7 -44 12 -47
5 -3 17 -25 28 -48 10 -23 27 -44 38 -47 12 -3 16 -10 12 -21 -3 -9 0 -18 9
-21 8 -4 15 -12 15 -19 0 -7 7 -16 16 -19 8 -3 13 -10 10 -14 -3 -5 11 -15 30
-23 20 -7 42 -23 50 -34 13 -18 27 -20 145 -24 157 -4 216 3 224 28 3 9 21 23
40 30 19 7 35 18 35 26 0 7 7 15 15 19 8 3 15 12 15 21 0 8 5 15 11 15 5 0 8
4 5 9 -3 5 1 11 9 15 8 3 15 14 15 24 0 19 23 46 31 37 3 -2 6 4 6 13 6 56 26
152 32 152 4 0 6 15 5 33 -2 47 -2 47 -23 47 -11 0 -26 6 -33 13 -17 17 -152
87 -168 87 -4 0 -10 -22 -14 -49 -3 -27 -13 -54 -21 -61 -10 -8 -14 -25 -11
-46 2 -19 0 -34 -3 -34 -3 0 -12 -14 -19 -30 -8 -17 -18 -28 -23 -24 -5 3 -9
0 -9 -5 0 -7 -29 -11 -75 -11 -70 0 -76 2 -110 32 -20 19 -35 42 -35 55 0 13
-5 23 -11 23 -6 0 -9 6 -6 13 2 6 -1 23 -8 37 -16 32 -20 416 -5 425 5 3 10
15 10 26 0 10 5 19 10 19 6 0 10 16 10 35 0 24 5 35 15 35 8 0 15 5 15 12 0 6
17 26 38 45 31 27 45 33 84 33 37 0 50 -4 58 -19 5 -11 19 -23 30 -26 11 -3
20 -15 20 -25 0 -10 4 -21 9 -24 4 -3 6 -17 4 -31 -4 -17 0 -27 11 -31 9 -3
16 -15 16 -25 0 -10 3 -19 6 -19 21 0 94 24 94 31 0 5 14 9 30 9 17 0 30 4 30
8 0 5 18 14 40 21 22 7 38 16 35 21 -3 6 -8 31 -11 57 -6 51 -24 103 -36 103
-4 0 -13 18 -19 40 -7 22 -16 40 -21 40 -4 0 -8 7 -8 15 0 8 -9 20 -20 27 -11
7 -20 18 -20 25 0 6 -9 14 -19 18 -10 3 -21 14 -24 24 -5 20 -61 36 -109 32
-18 -2 -28 2 -28 11 0 10 -24 13 -102 13 -57 0 -115 -1 -130 -3z"/>
<path d="M4898 6512 l-28 -3 -2 -597 c-2 -328 -2 -635 0 -682 l3 -85 172 5
172 5 0 278 0 277 61 0 62 0 -2 -65 c-1 -36 0 -68 3 -70 2 -3 3 -31 2 -62 -1
-32 -1 -65 -1 -73 0 -8 0 -35 -1 -60 -1 -25 -1 -52 0 -60 2 -31 1 -141 -2
-152 -3 -19 46 -23 202 -18 144 5 146 5 145 28 0 12 3 22 7 22 5 0 6 7 3 15
-9 23 -10 205 -1 205 5 0 5 5 1 12 -10 16 -12 58 -2 58 4 0 3 11 -2 25 -6 17
-6 25 1 25 6 0 7 5 3 11 -9 16 -11 229 -1 229 5 0 5 5 1 11 -9 16 -11 229 -1
229 5 0 5 5 1 11 -9 16 -11 229 -1 229 5 0 5 5 1 12 -8 13 -8 214 0 227 6 10
10 10 -181 11 -89 1 -166 -1 -171 -4 -5 -3 -8 -26 -7 -51 2 -30 -1 -43 -8 -38
-6 4 -7 1 -2 -8 13 -20 14 -120 2 -112 -6 4 -7 1 -1 -8 5 -8 9 -69 9 -136 1
-114 -1 -122 -20 -128 -40 -14 -65 -15 -65 -5 0 5 -6 10 -14 10 -17 0 -29 27
-15 35 5 4 6 12 2 18 -10 17 -11 47 -1 53 4 3 5 10 2 16 -12 18 -13 78 -2 78
7 0 7 5 1 13 -5 6 -9 69 -8 140 l1 127 -60 1 c-34 0 -99 1 -146 2 -47 1 -97 1
-112 -1z"/>
<path d="M5868 6512 c-21 -2 -38 -9 -39 -15 0 -7 -1 -312 -2 -680 l-2 -668
130 3 130 3 1 25 c0 14 -3 32 -7 41 -5 9 -5 20 -1 23 11 11 9 80 -3 88 -7 5
-6 8 1 8 12 0 12 29 0 48 -4 6 -3 12 2 12 8 0 9 34 2 65 -1 6 -1 12 0 15 7 19
5 50 -4 50 -6 0 -5 4 2 9 18 11 18 12 4 38 -7 13 -8 24 -3 27 10 7 9 25 -2 44
-5 6 -4 12 1 12 10 0 9 51 -1 67 -4 7 -4 14 1 17 10 6 9 67 -2 84 -4 7 -3 12
3 12 9 0 9 7 1 45 -1 6 -1 12 0 15 7 19 7 41 -1 46 -5 3 -6 13 -1 22 9 21 9
43 -1 59 -8 13 10 29 21 19 3 -4 7 -20 8 -37 1 -17 8 -43 14 -59 7 -17 10 -36
7 -44 -3 -8 -2 -16 3 -18 5 -2 10 -58 11 -125 1 -89 5 -123 14 -127 8 -3 12
-19 11 -40 -1 -20 2 -36 7 -36 4 0 5 -5 2 -10 -4 -6 -1 -17 5 -25 7 -8 14 -29
16 -47 2 -18 7 -58 10 -88 3 -30 10 -59 14 -65 5 -5 7 -25 5 -42 -1 -18 1 -33
5 -33 4 0 10 -22 14 -50 l7 -50 124 0 125 0 1 33 c1 17 1 36 0 41 -1 5 3 12 9
16 6 4 13 20 15 36 2 16 4 29 5 29 1 0 3 23 4 51 1 27 5 55 9 60 3 6 7 30 8
53 2 23 6 44 10 47 4 2 8 25 8 51 2 64 7 103 18 133 5 14 8 35 7 48 0 12 3 22
7 22 5 0 9 22 9 49 0 40 4 50 19 54 12 3 18 12 17 23 -2 11 1 31 5 47 4 15 9
63 11 107 1 46 6 79 12 77 6 -2 10 -184 10 -488 l1 -484 115 0 115 0 2 672 c1
435 -2 675 -8 679 -8 5 -239 8 -349 5 -23 -1 -25 -5 -28 -52 -2 -28 -9 -61
-17 -73 -7 -11 -16 -57 -19 -101 -4 -56 -10 -83 -21 -91 -9 -7 -13 -18 -9 -28
3 -9 1 -16 -6 -16 -6 0 -8 -4 -5 -10 3 -5 3 -15 -1 -22 -9 -14 -13 -55 -13
-130 0 -35 -5 -60 -13 -65 -7 -4 -14 -17 -15 -28 -3 -27 -20 -135 -25 -157 -8
-34 -18 -31 -18 5 0 20 -4 37 -10 37 -6 0 -10 32 -10 76 0 60 -4 80 -17 93
-10 9 -18 30 -18 46 0 17 -4 33 -8 36 -8 6 -14 53 -16 142 -1 26 -6 37 -16 37
-8 0 -16 8 -16 18 -1 9 -3 31 -4 47 -1 17 -4 39 -8 50 -9 29 -19 76 -22 105
-1 14 -6 33 -10 42 -4 9 -4 22 0 28 4 6 3 10 -2 9 -4 -1 -10 -1 -13 0 -11 3
-297 6 -332 3z m219 -417 c0 -8 -4 -12 -9 -9 -5 3 -6 10 -3 15 9 13 12 11 12
-6z"/>
<path d="M7042 6509 c-12 -4 -16 -15 -14 -42 3 -26 -1 -37 -10 -37 -8 0 -9 -3
-2 -8 15 -10 16 -232 1 -232 -9 0 -9 -3 -1 -8 15 -10 16 -634 1 -625 -6 4 -7
1 -1 -8 5 -8 10 -95 11 -194 0 -99 2 -186 2 -192 1 -10 85 -13 386 -13 l385 0
0 150 0 150 -235 0 c-217 0 -235 1 -236 18 -1 21 -1 231 0 253 1 15 24 17 209
17 l207 0 0 133 0 134 -205 1 -204 1 -6 24 c-3 13 -5 53 -3 89 1 36 2 77 2 93
l1 27 219 0 c182 0 221 3 231 15 7 8 8 15 3 15 -12 0 -15 48 -2 55 7 5 6 11
-1 20 -8 10 -8 19 0 36 8 14 8 19 1 15 -7 -4 -11 1 -11 13 0 12 6 21 13 21 9
0 9 2 0 8 -7 4 -11 17 -9 28 9 46 8 46 -363 48 -194 0 -359 -2 -369 -5z"/>
<path d="M7949 6504 c-5 -6 -7 -25 -5 -42 2 -17 0 -36 -5 -43 -4 -7 -5 -17 -2
-23 10 -15 10 -77 1 -82 -5 -3 -6 -10 -2 -15 9 -15 11 -108 2 -122 -4 -6 -2
-17 3 -23 7 -8 6 -14 -1 -19 -6 -3 -7 -11 -4 -17 8 -13 9 -136 1 -144 -3 -3
-4 -11 -1 -17 9 -25 11 -78 3 -83 -5 -3 -5 -13 0 -23 5 -9 6 -23 1 -31 -4 -7
-6 -18 -4 -24 9 -25 11 -77 3 -82 -5 -3 -5 -13 0 -23 6 -10 6 -23 1 -31 -5 -8
-6 -18 -3 -23 8 -13 8 -171 0 -184 -4 -7 -4 -14 1 -17 10 -6 9 -57 -1 -73 -5
-7 -5 -13 0 -13 7 0 9 -108 3 -135 -1 -5 -1 -14 0 -20 1 -5 3 -17 4 -25 1 -13
37 -15 248 -18 230 -2 249 -1 266 16 17 17 92 38 115 33 5 -1 6 3 3 8 -4 5 5
21 19 35 14 14 30 37 35 51 5 14 16 25 24 25 17 0 32 40 39 107 2 17 9 39 16
47 8 9 11 16 7 16 -3 0 -1 12 5 27 5 14 12 40 15 57 8 42 12 479 5 491 -3 6
-7 19 -8 30 -3 18 -7 32 -28 90 -4 11 -10 38 -12 60 -2 22 -9 44 -14 50 -5 5
-9 16 -9 25 0 9 -9 26 -20 38 -11 12 -20 24 -20 28 0 3 -11 15 -24 25 -14 11
-28 28 -31 39 -4 11 -13 20 -21 20 -9 0 -22 7 -30 15 -9 8 -26 15 -38 15 -12
0 -25 3 -29 6 -12 12 -498 10 -508 -2z m386 -297 c39 -6 95 -45 95 -65 0 -6 4
-12 9 -14 5 -1 11 -16 13 -33 2 -16 9 -36 16 -44 8 -8 13 -37 13 -70 0 -31 0
-94 1 -141 2 -134 -4 -222 -19 -250 -7 -14 -13 -34 -13 -44 0 -29 -63 -82 -94
-80 -15 0 -29 -3 -32 -8 -3 -4 -27 -8 -55 -8 -44 0 -49 2 -50 23 -6 112 -3
716 3 729 7 15 37 17 113 5z"/>
<path d="M8908 6502 c-10 -7 -15 -18 -11 -25 9 -16 11 -199 1 -219 -4 -9 -5
-19 0 -21 9 -6 8 -95 -1 -104 -4 -3 -2 -12 4 -19 7 -9 7 -19 0 -32 -7 -13 -7
-22 0 -29 8 -8 8 -17 0 -31 -6 -10 -7 -22 -4 -26 10 -9 10 -198 1 -218 -4 -9
-5 -19 0 -21 6 -4 8 -91 2 -107 -2 -3 -2 -9 -1 -14 7 -36 7 -84 0 -97 -5 -9
-5 -19 -2 -23 10 -10 10 -200 0 -213 -6 -8 -6 -13 0 -13 5 0 8 -29 7 -65 -2
-36 1 -67 6 -70 12 -7 281 -8 288 0 8 8 9 1334 1 1346 -9 16 -268 16 -291 1z"/>
<path d="M4100 4790 l-1455 -5 3 -53 c2 -41 -1 -52 -10 -46 -10 6 -10 5 -1 -7
9 -11 12 -82 12 -249 0 -129 0 -262 0 -295 l1 -60 3740 0 c2056 1 3742 4 3746
8 7 7 9 695 2 703 -7 7 -4376 10 -6038 4z m5643 -83 l38 6 -3 -89 c-3 -81 -5
-89 -23 -89 -11 0 -21 6 -21 13 -1 6 -2 20 -3 30 -2 33 -73 92 -110 92 -35 0
-48 -10 -56 -43 -8 -28 15 -67 39 -67 6 0 16 -8 22 -17 6 -10 29 -24 50 -32
21 -8 57 -31 78 -52 39 -37 40 -40 42 -114 1 -41 -1 -75 -4 -75 -4 0 -13 -13
-20 -30 -8 -16 -17 -30 -22 -30 -4 0 -25 -8 -46 -17 -50 -22 -104 -24 -126 -5
-10 8 -18 12 -18 8 0 -4 -9 -2 -20 4 -16 8 -24 6 -40 -10 -11 -11 -25 -18 -29
-15 -5 3 -8 49 -8 102 2 79 5 98 17 101 11 2 20 -12 29 -42 15 -52 33 -74 79
-98 45 -24 62 -23 95 7 32 31 34 48 7 75 -11 11 -20 25 -20 30 0 6 -8 10 -17
11 -10 0 -31 9 -48 20 -16 11 -38 22 -47 25 -10 4 -18 10 -18 15 0 5 -7 9 -15
9 -9 0 -19 8 -22 18 -4 9 -14 22 -22 29 -12 9 -16 30 -16 87 0 75 1 75 40 110
42 38 72 45 150 34 28 -3 67 -4 88 -1z m-6689 -29 c9 -17 16 -42 16 -55 0 -12
5 -23 10 -23 6 0 10 -7 10 -15 0 -8 4 -15 9 -15 5 0 11 -19 15 -42 4 -24 14
-53 22 -66 9 -13 13 -30 10 -37 -3 -9 0 -12 9 -9 8 3 17 21 21 40 3 19 11 34
16 34 6 0 8 7 4 15 -3 8 -1 15 4 15 6 0 10 11 10 23 0 13 3 27 8 31 4 4 7 11
8 14 0 9 32 83 42 102 12 20 191 27 203 8 10 -16 2 -28 -21 -28 -11 0 -22 -10
-26 -22 -10 -33 -11 -218 0 -218 5 0 4 -6 -1 -12 -10 -13 -8 -132 2 -175 3
-14 13 -23 25 -23 22 0 35 -16 17 -22 -26 -9 -252 -3 -252 7 0 6 10 11 23 13
34 5 40 27 40 155 0 107 -2 117 -18 117 -11 0 -22 -5 -26 -12 -4 -6 -3 -8 3
-5 6 4 2 -10 -8 -30 -11 -21 -19 -47 -19 -59 0 -12 -7 -27 -15 -34 -8 -7 -18
-30 -21 -52 -4 -22 -12 -45 -19 -51 -6 -7 -10 -17 -8 -24 2 -6 -5 -16 -16 -22
-28 -15 -61 21 -61 65 0 18 -5 36 -10 39 -6 4 -8 10 -5 15 3 4 -1 13 -9 19 -8
7 -17 28 -21 48 -3 20 -13 42 -21 50 -8 8 -14 25 -14 39 0 15 -6 24 -15 24
-13 0 -15 -21 -15 -128 0 -132 5 -152 42 -152 20 0 24 -16 6 -22 -11 -3 -144
-3 -170 1 -15 2 -8 21 7 21 9 0 25 9 36 19 19 18 21 30 20 211 0 202 -4 220
-46 220 -27 0 -35 8 -28 26 4 11 29 14 108 14 l104 0 15 -32z m854 -54 c3 -68
0 -83 -13 -88 -24 -9 -32 -1 -39 43 -7 47 -45 71 -113 71 l-43 0 0 -84 c0 -89
7 -107 30 -76 8 10 17 17 22 14 7 -5 13 14 20 61 2 11 10 20 18 20 13 0 15
-23 15 -140 0 -116 -3 -140 -15 -140 -8 0 -17 15 -22 39 -9 43 -33 76 -55 76
-11 0 -13 -18 -11 -87 l3 -88 63 1 c61 1 65 3 98 39 19 21 34 47 34 57 0 12 7
18 24 18 23 0 25 -3 20 -37 -3 -21 -8 -57 -11 -80 -3 -24 -10 -44 -17 -44 -34
-4 -383 -5 -393 -1 -20 6 -15 22 5 22 23 0 47 42 39 69 -3 12 0 21 6 21 8 0 8
3 2 8 -5 4 -10 30 -10 57 0 28 5 53 10 57 7 5 7 8 0 8 -6 0 -9 40 -9 102 2
104 -6 128 -40 128 -9 0 -16 9 -16 20 0 20 5 20 198 18 l197 -3 3 -81z m395
76 c9 -1 17 -5 17 -10 0 -5 10 -12 23 -15 27 -8 87 -71 87 -91 0 -8 5 -14 10
-14 6 0 10 -13 10 -30 0 -16 5 -30 10 -30 7 0 9 -25 7 -67 -5 -101 -70 -224
-102 -195 -5 4 -5 2 -2 -4 9 -16 -11 -30 -53 -39 -46 -11 -288 -13 -320 -4
-25 7 -25 7 6 14 19 4 36 16 41 29 5 11 8 108 8 214 -2 203 -4 211 -47 212
-18 0 -24 20 -11 34 6 6 222 3 316 -4z m431 4 c25 -9 19 -24 -14 -35 -20 -8
-30 -18 -31 -32 -1 -12 -1 -104 -2 -204 0 -191 1 -198 48 -217 35 -14 -6 -21
-122 -21 -76 0 -108 4 -111 13 -2 7 5 12 15 12 23 0 48 42 39 65 -3 9 -1 25 4
36 6 11 7 19 1 19 -5 0 -6 14 -1 35 4 19 5 35 1 35 -3 0 -5 53 -4 117 2 120
-4 143 -37 143 -18 0 -34 23 -23 34 8 8 217 8 237 0z m430 -4 c16 -6 27 -6 31
0 4 6 17 10 29 10 22 0 23 -4 25 -83 1 -46 -1 -91 -5 -100 -10 -26 -31 -20
-39 11 -11 47 -42 87 -84 109 -44 24 -53 24 -96 1 -46 -24 -75 -64 -82 -111
-3 -23 -9 -51 -13 -62 -4 -11 -4 -29 0 -40 4 -11 10 -46 14 -77 4 -47 11 -63
37 -88 28 -26 39 -30 88 -30 46 0 61 5 83 25 15 14 32 25 38 25 5 0 10 5 10
10 0 6 9 10 20 10 15 0 19 -6 18 -26 -2 -15 -8 -29 -15 -31 -7 -3 -13 -11 -13
-18 0 -12 -66 -42 -82 -37 -5 1 -8 -2 -8 -7 0 -15 -43 -21 -59 -8 -10 8 -13 8
-8 1 11 -19 -61 -14 -80 5 -9 9 -18 15 -20 14 -12 -10 -44 1 -69 22 -16 14
-32 25 -35 25 -4 0 -12 14 -19 30 -7 17 -16 30 -20 30 -5 0 -7 8 -6 18 2 9 -1
20 -7 23 -18 12 -13 189 6 189 4 0 5 5 2 10 -3 6 1 13 9 16 9 3 14 10 11 14
-6 10 52 75 95 104 31 21 47 24 127 25 50 1 103 -3 117 -9z m391 -20 c4 -16 7
-33 7 -37 1 -5 12 -25 24 -45 13 -21 24 -46 24 -57 0 -11 5 -23 10 -26 6 -4 8
-11 5 -16 -4 -5 -3 -9 2 -9 9 0 31 -57 40 -102 3 -16 12 -28 20 -28 8 0 11 -5
8 -10 -4 -6 1 -24 9 -42 9 -17 16 -37 16 -44 0 -7 11 -21 25 -32 14 -11 25
-24 25 -29 0 -14 -233 -10 -238 5 -2 7 5 12 17 12 24 0 27 25 8 80 l-12 35
-65 1 c-64 1 -65 0 -73 -30 -15 -55 -13 -70 11 -82 13 -6 22 -15 20 -20 -4
-10 -143 -13 -159 -4 -6 4 5 23 27 48 22 25 45 67 59 108 12 36 28 70 36 75
11 7 12 9 1 9 -10 0 -8 9 7 36 12 19 21 44 21 55 0 10 4 19 10 19 5 0 12 16
16 35 3 19 10 35 15 35 5 0 9 11 9 25 0 14 4 25 9 25 5 0 11 9 14 20 8 32 44
25 52 -10z m519 15 c6 -16 1 -19 -46 -29 -32 -7 -30 11 -31 -240 0 -133 3
-170 14 -177 8 -6 38 -7 68 -4 56 6 101 38 101 71 0 7 4 14 10 14 5 0 7 6 4
13 -7 18 19 49 36 42 12 -4 14 -21 12 -75 -2 -39 -7 -70 -11 -70 -4 0 -7 -10
-7 -22 l1 -23 -203 0 c-185 0 -249 7 -193 22 12 3 21 10 21 15 0 5 5 6 10 3 7
-4 10 63 8 206 -3 224 -2 218 -50 233 -11 3 -15 11 -12 21 5 12 28 15 134 15
106 0 129 -3 134 -15z m611 6 c3 -6 18 -6 37 1 25 9 33 8 42 -4 12 -16 12
-107 1 -145 -9 -28 -25 -30 -32 -3 -3 11 -9 20 -13 20 -4 0 -10 14 -13 30 -4
17 -11 30 -17 30 -5 0 -19 9 -30 20 -22 22 -60 26 -91 10 -13 -7 -19 -21 -19
-44 0 -28 5 -36 30 -46 17 -7 30 -16 30 -21 0 -5 26 -22 59 -38 33 -17 72 -47
90 -69 27 -35 31 -48 31 -100 0 -84 -39 -143 -94 -141 -5 1 -12 -5 -16 -11
-10 -17 -87 -22 -103 -7 -19 19 -75 20 -93 3 -8 -9 -19 -16 -24 -16 -9 0 -17
112 -12 173 4 49 32 47 47 -3 17 -60 86 -120 137 -120 19 0 68 45 68 62 0 20
-46 78 -63 78 -17 0 -26 6 -62 38 -7 6 -21 12 -29 12 -9 0 -16 5 -16 10 0 6
-5 10 -11 10 -13 0 -28 16 -53 54 -31 48 -19 168 19 182 8 4 15 12 15 19 0 8
8 16 18 18 33 9 161 7 167 -2z m383 -13 c3 -14 -3 -18 -27 -18 l-31 0 0 -179
c0 -222 2 -235 43 -248 68 -21 126 21 128 91 4 168 3 300 -3 317 -4 10 -17 19
-28 19 -13 0 -20 7 -20 20 0 20 5 21 87 18 71 -2 88 -6 91 -19 2 -11 -6 -18
-26 -22 -33 -7 -40 -24 -37 -91 1 -28 -3 -46 -9 -46 -7 0 -7 -3 -1 -8 12 -8
13 -121 2 -139 -5 -8 -3 -13 3 -13 6 0 8 -4 5 -10 -3 -5 -9 -31 -12 -57 -6
-53 -20 -71 -83 -106 -34 -18 -58 -24 -95 -23 -57 3 -135 33 -135 53 0 7 -6
13 -13 13 -25 0 -36 55 -36 179 -1 89 3 127 12 133 9 6 9 8 0 8 -9 0 -13 17
-13 50 0 39 -4 52 -17 57 -10 3 -24 11 -31 16 -26 20 12 27 128 25 100 -3 115
-5 118 -20z m570 13 c12 -1 22 -6 22 -11 0 -6 9 -10 19 -10 11 0 23 -9 26 -20
4 -11 10 -18 14 -15 15 9 30 -40 27 -85 -4 -50 -15 -90 -25 -90 -4 0 -17 -9
-29 -21 -15 -14 -43 -23 -85 -27 l-62 -7 0 -95 c0 -92 1 -95 23 -98 13 -2 21
-9 19 -15 -5 -15 -253 -17 -250 -2 1 6 14 11 28 13 16 2 27 11 30 25 3 12 4
112 3 222 l-3 200 -25 3 c-31 4 -45 17 -35 32 6 10 100 10 303 1z m427 -3 c35
-8 55 -20 49 -29 -3 -5 1 -6 8 -4 19 7 61 -52 55 -76 -3 -10 -1 -21 3 -24 18
-11 -34 -115 -57 -115 -7 0 -13 -4 -13 -9 0 -8 -79 -23 -130 -25 -12 -1 -15
-15 -14 -73 2 -127 1 -123 29 -123 22 0 37 -18 18 -21 -36 -6 -236 -3 -239 3
-7 10 38 28 50 20 5 -3 6 0 2 6 -4 7 -3 12 2 12 4 0 8 69 7 154 -1 107 2 153
9 148 8 -4 8 -2 0 9 -5 8 -10 32 -9 54 2 45 -9 65 -36 65 -21 0 -33 15 -24 31
7 10 243 8 290 -3z m415 -9 c0 -15 -5 -20 -22 -17 -13 2 -31 -4 -40 -13 -19
-17 -32 -79 -16 -79 5 0 7 -4 4 -9 -12 -19 -15 -82 -4 -75 7 5 8 3 3 -5 -10
-17 -13 -71 -4 -71 4 0 4 -12 0 -27 -4 -16 -6 -34 -3 -42 3 -9 0 -11 -9 -7 -8
4 -6 1 3 -7 10 -8 15 -17 12 -20 -9 -9 -12 -57 -3 -51 5 3 9 1 9 -5 0 -15 37
-23 79 -16 42 7 91 44 91 69 0 9 7 30 15 46 11 21 20 27 35 23 20 -5 26 -18
12 -27 -4 -2 -9 -37 -11 -78 -1 -40 -6 -75 -11 -78 -14 -9 -398 -6 -406 3 -5
4 2 10 14 14 12 3 22 10 22 15 0 5 5 6 10 3 7 -4 10 65 10 200 0 215 -4 235
-44 235 -16 0 -22 21 -9 33 3 4 64 7 135 7 123 0 128 -1 128 -21z m453 7 c7
-17 -1 -26 -24 -26 -21 0 -29 -21 -29 -75 0 -22 0 -47 0 -55 -1 -8 0 -45 2
-83 2 -37 0 -67 -4 -67 -4 0 -3 -12 1 -27 4 -16 5 -39 1 -53 -9 -37 9 -90 32
-90 10 0 18 -6 18 -13 0 -9 -30 -12 -120 -12 -90 0 -120 3 -120 12 0 7 9 13
19 13 28 0 34 24 36 130 0 52 4 100 8 107 4 6 4 14 -1 17 -4 2 -7 40 -7 83 2
95 1 99 -36 112 -20 7 -27 15 -23 25 9 22 239 24 247 2z m427 -76 c0 -71 -3
-90 -14 -90 -8 0 -21 19 -28 43 -9 25 -23 46 -36 52 -12 5 -22 13 -22 17 0 5
-24 8 -52 8 l-53 0 1 -72 c1 -91 9 -111 34 -96 10 7 16 16 14 20 -3 4 -1 8 4
8 6 0 13 16 16 35 7 36 24 55 35 37 7 -12 6 -271 -2 -279 -12 -11 -24 7 -37
56 -13 49 -28 65 -53 56 -16 -7 -15 -149 2 -168 21 -26 151 8 151 39 0 7 7 14
15 18 8 3 15 14 15 25 0 25 32 45 47 30 12 -12 1 -75 -16 -92 -6 -6 -7 -16 -1
-27 20 -38 -11 -45 -216 -45 -144 0 -194 3 -194 12 0 6 10 13 23 15 l22 3 0
220 c0 212 -1 220 -20 224 -22 4 -36 21 -29 33 3 4 93 8 200 8 l194 0 0 -90z"/>
<path d="M4174 4458 c0 -130 4 -206 11 -210 47 -34 127 38 116 105 0 4 4 7 9
7 13 0 11 140 -2 156 -5 7 -8 16 -7 20 8 48 -39 109 -92 119 l-35 6 0 -203z"/>
<path d="M5458 4440 c-4 -52 -3 -53 30 -56 32 -2 33 -2 26 29 -10 47 -52 67
-56 27z"/>
<path d="M7538 4603 c-5 -79 5 -136 25 -139 9 -1 17 2 17 8 0 5 8 21 19 34 35
45 7 144 -40 144 -13 0 -18 -11 -21 -47z"/>
<path d="M7966 4563 c1 -49 2 -91 3 -95 2 -16 27 -7 51 18 50 54 27 164 -35
164 -20 0 -21 -4 -19 -87z"/>
</g>
</svg>
